<svg width="261" height="115" viewBox="0 0 261 115" fill="none" xmlns="http://www.w3.org/2000/svg">
<path d="M14.7422 100.675C14.7422 100.243 14.6758 99.8559 14.543 99.5128C14.4212 99.1587 14.1888 98.8377 13.8457 98.5499C13.5026 98.2511 13.0212 97.9578 12.4014 97.67C11.7816 97.3823 10.9792 97.0835 9.99414 96.7736C8.89844 96.4194 7.85807 96.021 6.87305 95.5782C5.89909 95.1355 5.03581 94.6209 4.2832 94.0343C3.54167 93.4366 2.95508 92.7449 2.52344 91.9591C2.10286 91.1733 1.89258 90.2602 1.89258 89.2198C1.89258 88.2127 2.11393 87.2996 2.55664 86.4806C2.99935 85.6505 3.61914 84.9422 4.41602 84.3556C5.21289 83.7579 6.15365 83.2986 7.23828 82.9777C8.33398 82.6567 9.53483 82.4962 10.8408 82.4962C12.6227 82.4962 14.1777 82.8172 15.5059 83.4591C16.834 84.101 17.8633 84.9809 18.5938 86.0988C19.3353 87.2166 19.7061 88.4949 19.7061 89.9337H14.7588C14.7588 89.2254 14.6094 88.6056 14.3105 88.0743C14.0228 87.532 13.5801 87.1059 12.9824 86.796C12.3958 86.4861 11.6543 86.3312 10.7578 86.3312C9.89453 86.3312 9.17513 86.464 8.59961 86.7296C8.02409 86.9842 7.59245 87.3328 7.30469 87.7755C7.01693 88.2072 6.87305 88.6941 6.87305 89.2365C6.87305 89.646 6.97266 90.0167 7.17188 90.3488C7.38216 90.6808 7.69206 90.9907 8.10156 91.2784C8.51107 91.5662 9.01465 91.8374 9.6123 92.0919C10.21 92.3465 10.9017 92.5955 11.6875 92.839C13.0046 93.2374 14.1611 93.6857 15.1572 94.1837C16.1644 94.6818 17.0055 95.2407 17.6807 95.8605C18.3558 96.4803 18.8649 97.1831 19.208 97.9689C19.5511 98.7547 19.7227 99.6456 19.7227 100.642C19.7227 101.693 19.5179 102.634 19.1084 103.464C18.6989 104.294 18.1068 104.997 17.332 105.572C16.5573 106.148 15.6331 106.585 14.5596 106.884C13.486 107.183 12.2852 107.332 10.957 107.332C9.76172 107.332 8.58301 107.177 7.4209 106.867C6.25879 106.546 5.20182 106.065 4.25 105.423C3.30924 104.781 2.55664 103.962 1.99219 102.966C1.42773 101.97 1.14551 100.791 1.14551 99.4298H6.14258C6.14258 100.182 6.25879 100.819 6.49121 101.339C6.72363 101.859 7.05013 102.28 7.4707 102.601C7.90234 102.922 8.41146 103.154 8.99805 103.298C9.5957 103.442 10.2487 103.514 10.957 103.514C11.8203 103.514 12.5286 103.392 13.082 103.149C13.6465 102.905 14.0615 102.568 14.3271 102.136C14.6038 101.704 14.7422 101.217 14.7422 100.675ZM27.4756 81.5001V107H22.6943V81.5001H27.4756ZM26.7949 97.3878H25.4834C25.4945 96.1372 25.6605 94.9861 25.9814 93.9347C26.3024 92.8722 26.7617 91.9536 27.3594 91.1788C27.957 90.393 28.6709 89.7843 29.501 89.3527C30.3421 88.921 31.2718 88.7052 32.29 88.7052C33.1755 88.7052 33.9779 88.8325 34.6973 89.087C35.4277 89.3305 36.0531 89.729 36.5732 90.2823C37.1045 90.8247 37.514 91.5385 37.8018 92.424C38.0895 93.3094 38.2334 94.3829 38.2334 95.6447V107H33.4189V95.6115C33.4189 94.8146 33.3027 94.1892 33.0703 93.7355C32.849 93.2706 32.5225 92.9441 32.0908 92.756C31.6702 92.5568 31.1501 92.4572 30.5303 92.4572C29.8441 92.4572 29.2575 92.5844 28.7705 92.839C28.2946 93.0935 27.9128 93.4477 27.625 93.9015C27.3372 94.3442 27.127 94.8644 26.9941 95.462C26.8613 96.0597 26.7949 96.7016 26.7949 97.3878ZM41.1055 98.2013V97.8527C41.1055 96.5356 41.2936 95.3237 41.6699 94.2169C42.0462 93.0991 42.5941 92.1307 43.3135 91.3116C44.0329 90.4926 44.9183 89.8562 45.9697 89.4025C47.0212 88.9376 48.2275 88.7052 49.5889 88.7052C50.9502 88.7052 52.1621 88.9376 53.2246 89.4025C54.2871 89.8562 55.1781 90.4926 55.8975 91.3116C56.6279 92.1307 57.1813 93.0991 57.5576 94.2169C57.9339 95.3237 58.1221 96.5356 58.1221 97.8527V98.2013C58.1221 99.5073 57.9339 100.719 57.5576 101.837C57.1813 102.944 56.6279 103.912 55.8975 104.742C55.1781 105.561 54.2926 106.198 53.2412 106.651C52.1898 107.105 50.9834 107.332 49.6221 107.332C48.2607 107.332 47.0488 107.105 45.9863 106.651C44.9349 106.198 44.0439 105.561 43.3135 104.742C42.5941 103.912 42.0462 102.944 41.6699 101.837C41.2936 100.719 41.1055 99.5073 41.1055 98.2013ZM45.8867 97.8527V98.2013C45.8867 98.9539 45.9531 99.6567 46.0859 100.31C46.2188 100.963 46.429 101.538 46.7168 102.036C47.0156 102.523 47.403 102.905 47.8789 103.182C48.3548 103.458 48.9359 103.597 49.6221 103.597C50.2861 103.597 50.8561 103.458 51.332 103.182C51.8079 102.905 52.1898 102.523 52.4775 102.036C52.7653 101.538 52.9756 100.963 53.1084 100.31C53.2523 99.6567 53.3242 98.9539 53.3242 98.2013V97.8527C53.3242 97.1222 53.2523 96.436 53.1084 95.7941C52.9756 95.1411 52.7598 94.5656 52.4609 94.0675C52.1732 93.5584 51.7913 93.16 51.3154 92.8722C50.8395 92.5844 50.264 92.4406 49.5889 92.4406C48.9137 92.4406 48.3382 92.5844 47.8623 92.8722C47.3975 93.16 47.0156 93.5584 46.7168 94.0675C46.429 94.5656 46.2188 95.1411 46.0859 95.7941C45.9531 96.436 45.8867 97.1222 45.8867 97.8527ZM65.8418 92.9552V107H61.0605V89.0372H65.5596L65.8418 92.9552ZM71.2539 88.921L71.1709 93.3536C70.9385 93.3204 70.6562 93.2928 70.3242 93.2706C70.0033 93.2374 69.71 93.2208 69.4443 93.2208C68.7692 93.2208 68.1826 93.3094 67.6846 93.4865C67.1976 93.6525 66.7881 93.9015 66.4561 94.2335C66.1351 94.5656 65.8916 94.9695 65.7256 95.4454C65.5706 95.9213 65.4821 96.4637 65.46 97.0724L64.4971 96.7736C64.4971 95.6115 64.6133 94.5434 64.8457 93.5695C65.0781 92.5844 65.4157 91.7267 65.8584 90.9962C66.3122 90.2657 66.8656 89.7013 67.5186 89.3029C68.1715 88.9044 68.9186 88.7052 69.7598 88.7052C70.0254 88.7052 70.2965 88.7273 70.5732 88.7716C70.8499 88.8048 71.0768 88.8546 71.2539 88.921ZM83.1406 89.0372V92.424H72.6816V89.0372H83.1406ZM75.2715 84.6046H80.0527V101.588C80.0527 102.108 80.1191 102.507 80.252 102.783C80.3958 103.06 80.6061 103.254 80.8828 103.364C81.1595 103.464 81.5081 103.514 81.9287 103.514C82.2275 103.514 82.4932 103.503 82.7256 103.481C82.9691 103.447 83.1738 103.414 83.3398 103.381L83.3564 106.901C82.9469 107.033 82.5042 107.138 82.0283 107.216C81.5524 107.293 81.0267 107.332 80.4512 107.332C79.3997 107.332 78.4811 107.161 77.6953 106.818C76.9206 106.463 76.3229 105.899 75.9023 105.124C75.4818 104.349 75.2715 103.331 75.2715 102.069V84.6046ZM95.5752 102.036C95.5752 101.693 95.4756 101.383 95.2764 101.107C95.0771 100.83 94.7064 100.575 94.1641 100.343C93.6328 100.099 92.8636 99.8781 91.8564 99.6788C90.9489 99.4796 90.1022 99.2306 89.3164 98.9318C88.5417 98.6219 87.8665 98.2511 87.291 97.8195C86.7266 97.3878 86.2839 96.8787 85.9629 96.2921C85.6419 95.6945 85.4814 95.0138 85.4814 94.2501C85.4814 93.4975 85.6419 92.7892 85.9629 92.1251C86.2949 91.4611 86.7653 90.8745 87.374 90.3654C87.9938 89.8452 88.7464 89.4412 89.6318 89.1534C90.5283 88.8546 91.5355 88.7052 92.6533 88.7052C94.2139 88.7052 95.5531 88.9542 96.6709 89.4523C97.7998 89.9503 98.6631 90.6365 99.2607 91.5109C99.8695 92.3741 100.174 93.3592 100.174 94.4659H95.3926C95.3926 94.0011 95.293 93.5861 95.0938 93.2208C94.9056 92.8445 94.6068 92.5512 94.1973 92.3409C93.7988 92.1196 93.2786 92.0089 92.6367 92.0089C92.1055 92.0089 91.6462 92.103 91.2588 92.2911C90.8714 92.4682 90.5726 92.7117 90.3623 93.0216C90.1631 93.3204 90.0635 93.6525 90.0635 94.0177C90.0635 94.2944 90.1188 94.5434 90.2295 94.7648C90.3512 94.9751 90.5449 95.1687 90.8105 95.3458C91.0762 95.5229 91.4193 95.6889 91.8398 95.8439C92.2715 95.9878 92.8027 96.1206 93.4336 96.2423C94.7285 96.5079 95.8851 96.8566 96.9033 97.2882C97.9215 97.7088 98.7295 98.2843 99.3271 99.0148C99.9248 99.7342 100.224 100.68 100.224 101.854C100.224 102.651 100.047 103.381 99.6924 104.045C99.3382 104.709 98.8291 105.29 98.165 105.788C97.501 106.275 96.7041 106.657 95.7744 106.934C94.8558 107.199 93.821 107.332 92.6699 107.332C90.9987 107.332 89.582 107.033 88.4199 106.436C87.2689 105.838 86.3945 105.08 85.7969 104.161C85.2103 103.232 84.917 102.28 84.917 101.306H89.4492C89.4714 101.959 89.6374 102.484 89.9473 102.883C90.2682 103.281 90.6722 103.569 91.1592 103.746C91.6572 103.923 92.194 104.012 92.7695 104.012C93.3893 104.012 93.904 103.929 94.3135 103.763C94.723 103.586 95.0329 103.353 95.2432 103.066C95.4645 102.767 95.5752 102.424 95.5752 102.036ZM124.678 100.675C124.678 100.243 124.611 99.8559 124.479 99.5128C124.357 99.1587 124.124 98.8377 123.781 98.5499C123.438 98.2511 122.957 97.9578 122.337 97.67C121.717 97.3823 120.915 97.0835 119.93 96.7736C118.834 96.4194 117.794 96.021 116.809 95.5782C115.835 95.1355 114.971 94.6209 114.219 94.0343C113.477 93.4366 112.891 92.7449 112.459 91.9591C112.038 91.1733 111.828 90.2602 111.828 89.2198C111.828 88.2127 112.049 87.2996 112.492 86.4806C112.935 85.6505 113.555 84.9422 114.352 84.3556C115.148 83.7579 116.089 83.2986 117.174 82.9777C118.27 82.6567 119.47 82.4962 120.776 82.4962C122.558 82.4962 124.113 82.8172 125.441 83.4591C126.77 84.101 127.799 84.9809 128.529 86.0988C129.271 87.2166 129.642 88.4949 129.642 89.9337H124.694C124.694 89.2254 124.545 88.6056 124.246 88.0743C123.958 87.532 123.516 87.1059 122.918 86.796C122.331 86.4861 121.59 86.3312 120.693 86.3312C119.83 86.3312 119.111 86.464 118.535 86.7296C117.96 86.9842 117.528 87.3328 117.24 87.7755C116.952 88.2072 116.809 88.6941 116.809 89.2365C116.809 89.646 116.908 90.0167 117.107 90.3488C117.318 90.6808 117.628 90.9907 118.037 91.2784C118.447 91.5662 118.95 91.8374 119.548 92.0919C120.146 92.3465 120.837 92.5955 121.623 92.839C122.94 93.2374 124.097 93.6857 125.093 94.1837C126.1 94.6818 126.941 95.2407 127.616 95.8605C128.291 96.4803 128.8 97.1831 129.144 97.9689C129.487 98.7547 129.658 99.6456 129.658 100.642C129.658 101.693 129.453 102.634 129.044 103.464C128.634 104.294 128.042 104.997 127.268 105.572C126.493 106.148 125.569 106.585 124.495 106.884C123.422 107.183 122.221 107.332 120.893 107.332C119.697 107.332 118.519 107.177 117.356 106.867C116.194 106.546 115.137 106.065 114.186 105.423C113.245 104.781 112.492 103.962 111.928 102.966C111.363 101.97 111.081 100.791 111.081 99.4298H116.078C116.078 100.182 116.194 100.819 116.427 101.339C116.659 101.859 116.986 102.28 117.406 102.601C117.838 102.922 118.347 103.154 118.934 103.298C119.531 103.442 120.184 103.514 120.893 103.514C121.756 103.514 122.464 103.392 123.018 103.149C123.582 102.905 123.997 102.568 124.263 102.136C124.539 101.704 124.678 101.217 124.678 100.675ZM143.371 102.7V89.0372H148.152V107H143.653L143.371 102.7ZM143.902 99.0148L145.313 98.9816C145.313 100.177 145.175 101.289 144.898 102.318C144.622 103.337 144.207 104.222 143.653 104.975C143.1 105.716 142.403 106.297 141.562 106.718C140.72 107.127 139.73 107.332 138.59 107.332C137.715 107.332 136.908 107.21 136.166 106.967C135.436 106.712 134.805 106.319 134.273 105.788C133.753 105.246 133.344 104.554 133.045 103.713C132.757 102.861 132.613 101.837 132.613 100.642V89.0372H137.395V100.675C137.395 101.206 137.455 101.654 137.577 102.02C137.71 102.385 137.893 102.684 138.125 102.916C138.357 103.149 138.629 103.315 138.938 103.414C139.259 103.514 139.614 103.564 140.001 103.564C140.986 103.564 141.761 103.364 142.325 102.966C142.901 102.568 143.305 102.025 143.537 101.339C143.781 100.642 143.902 99.867 143.902 99.0148ZM156.586 92.756V107H151.788V89.0372H156.287L156.586 92.756ZM155.922 97.3878H154.594C154.594 96.1372 154.743 94.9861 155.042 93.9347C155.352 92.8722 155.8 91.9536 156.387 91.1788C156.984 90.393 157.72 89.7843 158.595 89.3527C159.469 88.921 160.482 88.7052 161.633 88.7052C162.43 88.7052 163.16 88.8269 163.824 89.0704C164.488 89.3029 165.058 89.6736 165.534 90.1827C166.021 90.6808 166.397 91.3338 166.663 92.1417C166.929 92.9386 167.062 93.896 167.062 95.0138V107H162.28V95.545C162.28 94.726 162.17 94.0952 161.948 93.6525C161.727 93.2098 161.411 92.8999 161.002 92.7228C160.604 92.5457 160.122 92.4572 159.558 92.4572C158.938 92.4572 158.396 92.5844 157.931 92.839C157.477 93.0935 157.101 93.4477 156.802 93.9015C156.503 94.3442 156.282 94.8644 156.138 95.462C155.994 96.0597 155.922 96.7016 155.922 97.3878ZM166.613 96.84L164.903 97.0558C164.903 95.8826 165.047 94.7924 165.335 93.7853C165.634 92.7781 166.071 91.8927 166.646 91.129C167.233 90.3654 167.958 89.7732 168.821 89.3527C169.685 88.921 170.681 88.7052 171.81 88.7052C172.673 88.7052 173.459 88.8325 174.167 89.087C174.875 89.3305 175.479 89.7234 175.977 90.2657C176.486 90.797 176.873 91.4943 177.139 92.3575C177.415 93.2208 177.554 94.2778 177.554 95.5284V107H172.756V95.5284C172.756 94.6984 172.645 94.0675 172.424 93.6359C172.214 93.1932 171.904 92.8888 171.494 92.7228C171.096 92.5457 170.62 92.4572 170.066 92.4572C169.491 92.4572 168.987 92.5734 168.556 92.8058C168.124 93.0271 167.764 93.337 167.477 93.7355C167.189 94.1339 166.973 94.5988 166.829 95.13C166.685 95.6502 166.613 96.2202 166.613 96.84ZM186.037 92.756V107H181.239V89.0372H185.738L186.037 92.756ZM185.373 97.3878H184.045C184.045 96.1372 184.194 94.9861 184.493 93.9347C184.803 92.8722 185.251 91.9536 185.838 91.1788C186.436 90.393 187.172 89.7843 188.046 89.3527C188.92 88.921 189.933 88.7052 191.084 88.7052C191.881 88.7052 192.611 88.8269 193.275 89.0704C193.939 89.3029 194.509 89.6736 194.985 90.1827C195.472 90.6808 195.849 91.3338 196.114 92.1417C196.38 92.9386 196.513 93.896 196.513 95.0138V107H191.731V95.545C191.731 94.726 191.621 94.0952 191.399 93.6525C191.178 93.2098 190.863 92.8999 190.453 92.7228C190.055 92.5457 189.573 92.4572 189.009 92.4572C188.389 92.4572 187.847 92.5844 187.382 92.839C186.928 93.0935 186.552 93.4477 186.253 93.9015C185.954 94.3442 185.733 94.8644 185.589 95.462C185.445 96.0597 185.373 96.7016 185.373 97.3878ZM196.064 96.84L194.354 97.0558C194.354 95.8826 194.498 94.7924 194.786 93.7853C195.085 92.7781 195.522 91.8927 196.098 91.129C196.684 90.3654 197.409 89.7732 198.272 89.3527C199.136 88.921 200.132 88.7052 201.261 88.7052C202.124 88.7052 202.91 88.8325 203.618 89.087C204.326 89.3305 204.93 89.7234 205.428 90.2657C205.937 90.797 206.324 91.4943 206.59 92.3575C206.867 93.2208 207.005 94.2778 207.005 95.5284V107H202.207V95.5284C202.207 94.6984 202.096 94.0675 201.875 93.6359C201.665 93.1932 201.355 92.8888 200.945 92.7228C200.547 92.5457 200.071 92.4572 199.518 92.4572C198.942 92.4572 198.438 92.5734 198.007 92.8058C197.575 93.0271 197.215 93.337 196.928 93.7355C196.64 94.1339 196.424 94.5988 196.28 95.13C196.136 95.6502 196.064 96.2202 196.064 96.84ZM220.402 102.949V94.9474C220.402 94.3719 220.308 93.8794 220.12 93.4698C219.932 93.0493 219.639 92.7228 219.24 92.4904C218.853 92.2579 218.349 92.1417 217.729 92.1417C217.198 92.1417 216.739 92.2358 216.352 92.424C215.964 92.601 215.665 92.8611 215.455 93.2042C215.245 93.5363 215.14 93.9292 215.14 94.3829H210.358C210.358 93.6193 210.535 92.8943 210.89 92.2081C211.244 91.5219 211.758 90.9187 212.434 90.3986C213.109 89.8673 213.911 89.4523 214.841 89.1534C215.782 88.8546 216.833 88.7052 217.995 88.7052C219.39 88.7052 220.629 88.9376 221.714 89.4025C222.799 89.8673 223.651 90.5646 224.271 91.4943C224.901 92.424 225.217 93.5861 225.217 94.9806V102.667C225.217 103.652 225.278 104.46 225.399 105.091C225.521 105.711 225.698 106.253 225.931 106.718V107H221.1C220.867 106.513 220.69 105.904 220.568 105.174C220.458 104.432 220.402 103.691 220.402 102.949ZM221.033 96.0597L221.066 98.7657H218.394C217.763 98.7657 217.215 98.8377 216.75 98.9816C216.285 99.1254 215.903 99.3302 215.604 99.5958C215.306 99.8504 215.084 100.149 214.94 100.492C214.808 100.835 214.741 101.212 214.741 101.621C214.741 102.031 214.835 102.401 215.023 102.734C215.212 103.054 215.483 103.309 215.837 103.497C216.191 103.674 216.606 103.763 217.082 103.763C217.801 103.763 218.427 103.619 218.958 103.331C219.489 103.043 219.899 102.689 220.187 102.269C220.485 101.848 220.64 101.45 220.651 101.073L221.913 103.099C221.736 103.553 221.493 104.023 221.183 104.51C220.884 104.997 220.502 105.456 220.037 105.888C219.572 106.308 219.013 106.657 218.36 106.934C217.707 107.199 216.933 107.332 216.036 107.332C214.896 107.332 213.861 107.105 212.932 106.651C212.013 106.187 211.283 105.55 210.74 104.742C210.209 103.923 209.943 102.994 209.943 101.953C209.943 101.012 210.12 100.177 210.475 99.4464C210.829 98.7159 211.349 98.1017 212.035 97.6036C212.732 97.0945 213.601 96.7127 214.642 96.4581C215.682 96.1925 216.888 96.0597 218.261 96.0597H221.033ZM233.684 92.9552V107H228.902V89.0372H233.401L233.684 92.9552ZM239.096 88.921L239.013 93.3536C238.78 93.3204 238.498 93.2928 238.166 93.2706C237.845 93.2374 237.552 93.2208 237.286 93.2208C236.611 93.2208 236.024 93.3094 235.526 93.4865C235.039 93.6525 234.63 93.9015 234.298 94.2335C233.977 94.5656 233.733 94.9695 233.567 95.4454C233.412 95.9213 233.324 96.4637 233.302 97.0724L232.339 96.7736C232.339 95.6115 232.455 94.5434 232.688 93.5695C232.92 92.5844 233.257 91.7267 233.7 90.9962C234.154 90.2657 234.707 89.7013 235.36 89.3029C236.013 88.9044 236.76 88.7052 237.602 88.7052C237.867 88.7052 238.138 88.7273 238.415 88.7716C238.692 88.8048 238.919 88.8546 239.096 88.921ZM246.981 104.975L251.746 89.0372H256.876L249.654 109.706C249.499 110.16 249.289 110.647 249.023 111.167C248.769 111.687 248.42 112.18 247.978 112.645C247.546 113.121 246.998 113.508 246.334 113.807C245.681 114.106 244.879 114.255 243.927 114.255C243.473 114.255 243.102 114.227 242.814 114.172C242.527 114.117 242.184 114.039 241.785 113.94V110.437C241.907 110.437 242.034 110.437 242.167 110.437C242.3 110.448 242.427 110.453 242.549 110.453C243.18 110.453 243.694 110.381 244.093 110.237C244.491 110.094 244.812 109.872 245.056 109.573C245.299 109.286 245.493 108.909 245.637 108.444L246.981 104.975ZM244.989 89.0372L248.891 102.053L249.571 107.116L246.317 107.465L239.859 89.0372H244.989Z" fill="#996DFF"/>
<mask id="mask0_1002_30" style="mask-type:alpha" maskUnits="userSpaceOnUse" x="105" y="18" width="44" height="50">
<path d="M105.303 22.7287C105.195 19.5663 108.627 17.5361 111.346 19.1544L146.256 39.9312C148.866 41.4844 148.86 45.2653 146.246 46.8113L112.729 66.635C110.114 68.1811 106.799 66.3644 106.695 63.3291L105.303 22.7287Z" fill="#271A45"/>
</mask>
<g mask="url(#mask0_1002_30)">
<ellipse cx="126.664" cy="33.8422" rx="25.8223" ry="25.8223" transform="rotate(-120.602 126.664 33.8422)" fill="#996DFF"/>
<ellipse cx="114.378" cy="38.9163" rx="25.8223" ry="25.8223" transform="rotate(-120.602 114.378 38.9163)" fill="#8257E5"/>
<circle cx="95.2241" cy="34.8534" r="30.3657" transform="rotate(-120.602 95.2241 34.8534)" fill="#633BBC"/>
<circle cx="86.6856" cy="78.7934" r="35.0398" transform="rotate(-120.602 86.6856 78.7934)" fill="#271A45"/>
</g>
</svg>
